<svg xmlns="http://www.w3.org/2000/svg" xmlns:xlink="http://www.w3.org/1999/xlink" width="500" zoomAndPan="magnify" viewBox="0 0 375 374.999991" height="500" preserveAspectRatio="xMidYMid meet" version="1.0"><defs><clipPath id="82e07e5130"><path d="M 9.316406 9.316406 L 365.308594 9.316406 L 365.308594 365.308594 L 9.316406 365.308594 Z M 9.316406 9.316406 " clip-rule="nonzero"/></clipPath><clipPath id="90af23cbca"><path d="M 307.226562 91.46875 L 296.847656 91.46875 L 296.847656 23.007812 C 296.847656 22.109375 296.761719 21.21875 296.585938 20.335938 C 296.410156 19.457031 296.152344 18.601562 295.804688 17.769531 C 295.460938 16.9375 295.039062 16.148438 294.542969 15.402344 C 294.042969 14.65625 293.472656 13.960938 292.839844 13.328125 C 292.203125 12.691406 291.511719 12.125 290.765625 11.625 C 290.015625 11.125 289.226562 10.703125 288.398438 10.359375 C 287.566406 10.015625 286.710938 9.753906 285.828125 9.578125 C 284.945312 9.40625 284.054688 9.316406 283.15625 9.316406 L 91.46875 9.316406 C 90.570312 9.316406 89.679688 9.40625 88.796875 9.578125 C 87.914062 9.753906 87.058594 10.015625 86.230469 10.359375 C 85.398438 10.703125 84.609375 11.125 83.863281 11.625 C 83.113281 12.125 82.421875 12.691406 81.785156 13.328125 C 81.152344 13.960938 80.582031 14.65625 80.085938 15.402344 C 79.585938 16.148438 79.164062 16.9375 78.820312 17.769531 C 78.476562 18.601562 78.214844 19.457031 78.039062 20.335938 C 77.863281 21.21875 77.777344 22.109375 77.777344 23.007812 L 77.777344 91.46875 L 76.695312 91.46875 C 75.59375 91.46875 74.492188 91.5 73.390625 91.554688 C 72.289062 91.609375 71.191406 91.691406 70.09375 91.800781 C 68.996094 91.910156 67.902344 92.046875 66.8125 92.207031 C 65.722656 92.371094 64.636719 92.5625 63.554688 92.777344 C 62.476562 92.992188 61.398438 93.234375 60.332031 93.503906 C 59.261719 93.773438 58.199219 94.066406 57.144531 94.386719 C 56.089844 94.710938 55.042969 95.054688 54.007812 95.429688 C 52.96875 95.800781 51.941406 96.195312 50.921875 96.621094 C 49.90625 97.042969 48.898438 97.488281 47.902344 97.960938 C 46.90625 98.433594 45.921875 98.929688 44.949219 99.449219 C 43.976562 99.96875 43.019531 100.511719 42.074219 101.078125 C 41.128906 101.648438 40.199219 102.238281 39.28125 102.847656 C 38.363281 103.460938 37.464844 104.097656 36.578125 104.753906 C 35.695312 105.410156 34.824219 106.089844 33.972656 106.789062 C 33.121094 107.488281 32.285156 108.207031 31.46875 108.949219 C 30.652344 109.6875 29.855469 110.449219 29.074219 111.226562 C 28.296875 112.007812 27.535156 112.804688 26.796875 113.621094 C 26.054688 114.4375 25.335938 115.273438 24.636719 116.125 C 23.9375 116.976562 23.257812 117.84375 22.601562 118.730469 C 21.945312 119.617188 21.308594 120.515625 20.699219 121.433594 C 20.085938 122.347656 19.496094 123.28125 18.925781 124.226562 C 18.359375 125.171875 17.816406 126.128906 17.296875 127.101562 C 16.777344 128.074219 16.28125 129.058594 15.808594 130.054688 C 15.335938 131.050781 14.890625 132.058594 14.46875 133.074219 C 14.046875 134.09375 13.648438 135.121094 13.277344 136.160156 C 12.902344 137.195312 12.558594 138.242188 12.238281 139.296875 C 11.914062 140.351562 11.621094 141.414062 11.351562 142.484375 C 11.082031 143.550781 10.839844 144.628906 10.625 145.707031 C 10.410156 146.789062 10.21875 147.875 10.058594 148.964844 C 9.894531 150.054688 9.757812 151.148438 9.648438 152.246094 C 9.539062 153.34375 9.457031 154.441406 9.402344 155.542969 C 9.347656 156.644531 9.316406 157.746094 9.316406 158.847656 L 9.316406 297.929688 C 9.316406 299.03125 9.347656 300.132812 9.402344 301.234375 C 9.457031 302.335938 9.539062 303.4375 9.648438 304.53125 C 9.757812 305.628906 9.890625 306.722656 10.054688 307.8125 C 10.21875 308.902344 10.40625 309.988281 10.621094 311.070312 C 10.839844 312.152344 11.082031 313.226562 11.347656 314.296875 C 11.617188 315.363281 11.914062 316.425781 12.234375 317.480469 C 12.554688 318.535156 12.902344 319.582031 13.273438 320.621094 C 13.644531 321.660156 14.042969 322.6875 14.464844 323.703125 C 14.886719 324.722656 15.332031 325.730469 15.804688 326.726562 C 16.277344 327.722656 16.773438 328.707031 17.292969 329.679688 C 17.8125 330.652344 18.355469 331.609375 18.921875 332.554688 C 19.492188 333.5 20.082031 334.429688 20.691406 335.347656 C 21.304688 336.265625 21.941406 337.164062 22.597656 338.050781 C 23.253906 338.9375 23.933594 339.804688 24.632812 340.65625 C 25.332031 341.507812 26.050781 342.34375 26.792969 343.160156 C 27.53125 343.976562 28.292969 344.773438 29.070312 345.554688 C 29.851562 346.332031 30.648438 347.09375 31.464844 347.835938 C 32.28125 348.574219 33.117188 349.292969 33.96875 349.992188 C 34.820312 350.691406 35.691406 351.371094 36.574219 352.027344 C 37.460938 352.683594 38.363281 353.320312 39.277344 353.933594 C 40.195312 354.546875 41.125 355.136719 42.070312 355.703125 C 43.015625 356.269531 43.976562 356.8125 44.945312 357.332031 C 45.917969 357.851562 46.902344 358.347656 47.898438 358.820312 C 48.894531 359.292969 49.902344 359.738281 50.921875 360.160156 C 51.9375 360.585938 52.96875 360.980469 54.003906 361.351562 C 55.042969 361.726562 56.089844 362.070312 57.144531 362.390625 C 58.199219 362.714844 59.261719 363.007812 60.328125 363.277344 C 61.398438 363.542969 62.472656 363.785156 63.554688 364.003906 C 64.636719 364.21875 65.722656 364.40625 66.8125 364.570312 C 67.902344 364.734375 68.996094 364.871094 70.09375 364.976562 C 71.191406 365.085938 72.289062 365.167969 73.390625 365.222656 C 74.492188 365.28125 75.59375 365.308594 76.695312 365.308594 L 297.929688 365.308594 C 299.03125 365.308594 300.132812 365.28125 301.234375 365.222656 C 302.335938 365.167969 303.4375 365.085938 304.53125 364.976562 C 305.628906 364.871094 306.722656 364.734375 307.8125 364.570312 C 308.902344 364.40625 309.988281 364.21875 311.070312 364.003906 C 312.152344 363.785156 313.226562 363.542969 314.296875 363.277344 C 315.363281 363.007812 316.425781 362.710938 317.480469 362.390625 C 318.535156 362.070312 319.582031 361.726562 320.621094 361.351562 C 321.660156 360.980469 322.6875 360.585938 323.703125 360.160156 C 324.722656 359.738281 325.730469 359.292969 326.726562 358.820312 C 327.722656 358.347656 328.707031 357.851562 329.679688 357.332031 C 330.652344 356.8125 331.609375 356.269531 332.554688 355.703125 C 333.5 355.136719 334.429688 354.546875 335.347656 353.933594 C 336.265625 353.320312 337.164062 352.683594 338.050781 352.027344 C 338.9375 351.371094 339.804688 350.691406 340.65625 349.992188 C 341.507812 349.292969 342.34375 348.574219 343.160156 347.832031 C 343.976562 347.09375 344.773438 346.332031 345.554688 345.554688 C 346.332031 344.773438 347.09375 343.976562 347.835938 343.160156 C 348.574219 342.34375 349.292969 341.507812 349.992188 340.65625 C 350.691406 339.804688 351.371094 338.9375 352.027344 338.050781 C 352.683594 337.164062 353.320312 336.265625 353.933594 335.347656 C 354.546875 334.429688 355.136719 333.5 355.703125 332.554688 C 356.269531 331.609375 356.8125 330.652344 357.332031 329.679688 C 357.851562 328.707031 358.347656 327.722656 358.820312 326.726562 C 359.292969 325.730469 359.738281 324.722656 360.160156 323.703125 C 360.585938 322.6875 360.980469 321.65625 361.351562 320.621094 C 361.726562 319.582031 362.070312 318.535156 362.390625 317.480469 C 362.714844 316.425781 363.007812 315.363281 363.277344 314.296875 C 363.542969 313.226562 363.785156 312.152344 364.003906 311.070312 C 364.21875 309.988281 364.40625 308.902344 364.570312 307.8125 C 364.734375 306.722656 364.871094 305.628906 364.976562 304.53125 C 365.085938 303.4375 365.167969 302.335938 365.222656 301.234375 C 365.28125 300.132812 365.308594 299.03125 365.308594 297.929688 L 365.308594 149.550781 C 365.304688 147.648438 365.210938 145.75 365.023438 143.859375 C 364.835938 141.96875 364.554688 140.089844 364.179688 138.222656 C 363.808594 136.359375 363.347656 134.515625 362.792969 132.699219 C 362.238281 130.878906 361.597656 129.089844 360.871094 127.335938 C 360.140625 125.578125 359.328125 123.859375 358.429688 122.183594 C 357.535156 120.507812 356.554688 118.878906 355.5 117.296875 C 354.441406 115.71875 353.3125 114.191406 352.105469 112.722656 C 350.898438 111.253906 349.621094 109.84375 348.277344 108.5 C 346.933594 107.15625 345.523438 105.878906 344.054688 104.671875 C 342.585938 103.46875 341.058594 102.335938 339.480469 101.277344 C 337.898438 100.222656 336.269531 99.246094 334.59375 98.347656 C 332.917969 97.449219 331.199219 96.636719 329.445312 95.910156 C 327.6875 95.179688 325.898438 94.539062 324.078125 93.984375 C 322.261719 93.433594 320.417969 92.96875 318.554688 92.597656 C 316.6875 92.222656 314.808594 91.941406 312.917969 91.753906 C 311.027344 91.566406 309.128906 91.472656 307.226562 91.46875 Z M 307.226562 118.851562 C 308.230469 118.855469 309.234375 118.90625 310.234375 119.003906 C 311.234375 119.105469 312.226562 119.253906 313.214844 119.449219 C 314.199219 119.644531 315.171875 119.890625 316.132812 120.183594 C 317.09375 120.476562 318.039062 120.816406 318.96875 121.199219 C 319.898438 121.585938 320.804688 122.015625 321.691406 122.488281 C 322.574219 122.964844 323.4375 123.480469 324.273438 124.039062 C 325.109375 124.597656 325.914062 125.195312 326.691406 125.832031 C 327.46875 126.472656 328.210938 127.144531 328.921875 127.855469 C 329.632812 128.566406 330.304688 129.308594 330.945312 130.085938 C 331.582031 130.863281 332.179688 131.667969 332.738281 132.503906 C 333.296875 133.339844 333.8125 134.203125 334.289062 135.085938 C 334.761719 135.972656 335.191406 136.882812 335.578125 137.808594 C 335.960938 138.738281 336.300781 139.683594 336.59375 140.644531 C 336.886719 141.605469 337.132812 142.578125 337.328125 143.5625 C 337.523438 144.550781 337.671875 145.542969 337.773438 146.542969 C 337.871094 147.542969 337.921875 148.546875 337.925781 149.550781 L 337.925781 151.46875 L 296.847656 172.003906 L 296.847656 118.851562 Z M 269.464844 36.699219 L 269.464844 185.695312 L 187.3125 226.773438 L 105.160156 185.695312 L 105.160156 36.699219 Z M 76.695312 118.851562 L 77.777344 118.851562 L 77.777344 172.003906 L 37.414062 151.824219 C 37.617188 150.679688 37.871094 149.550781 38.171875 148.429688 C 38.472656 147.308594 38.824219 146.203125 39.222656 145.113281 C 39.621094 144.023438 40.066406 142.953125 40.558594 141.902344 C 41.050781 140.851562 41.585938 139.820312 42.167969 138.816406 C 42.75 137.8125 43.375 136.835938 44.039062 135.886719 C 44.707031 134.933594 45.414062 134.015625 46.160156 133.125 C 46.90625 132.238281 47.6875 131.382812 48.507812 130.5625 C 49.328125 129.742188 50.183594 128.960938 51.074219 128.210938 C 51.960938 127.464844 52.882812 126.761719 53.832031 126.09375 C 54.78125 125.429688 55.761719 124.804688 56.765625 124.222656 C 57.769531 123.644531 58.796875 123.105469 59.847656 122.617188 C 60.902344 122.125 61.972656 121.679688 63.0625 121.28125 C 64.152344 120.882812 65.257812 120.53125 66.378906 120.230469 C 67.5 119.929688 68.628906 119.675781 69.773438 119.472656 C 70.914062 119.269531 72.0625 119.117188 73.21875 119.011719 C 74.375 118.910156 75.535156 118.855469 76.695312 118.851562 Z M 297.929688 337.925781 L 76.695312 337.925781 C 75.386719 337.921875 74.078125 337.855469 72.777344 337.726562 C 71.472656 337.597656 70.179688 337.402344 68.894531 337.148438 C 67.613281 336.890625 66.34375 336.570312 65.089844 336.191406 C 63.839844 335.808594 62.609375 335.367188 61.398438 334.867188 C 60.1875 334.363281 59.007812 333.804688 57.851562 333.1875 C 56.699219 332.570312 55.578125 331.894531 54.488281 331.167969 C 53.398438 330.441406 52.351562 329.660156 51.335938 328.828125 C 50.324219 328 49.355469 327.121094 48.429688 326.195312 C 47.503906 325.269531 46.625 324.300781 45.796875 323.289062 C 44.964844 322.277344 44.1875 321.226562 43.457031 320.136719 C 42.730469 319.050781 42.058594 317.925781 41.4375 316.773438 C 40.820312 315.617188 40.261719 314.4375 39.761719 313.226562 C 39.257812 312.019531 38.816406 310.785156 38.433594 309.535156 C 38.054688 308.28125 37.734375 307.011719 37.476562 305.730469 C 37.222656 304.445312 37.027344 303.152344 36.898438 301.847656 C 36.769531 300.546875 36.703125 299.238281 36.699219 297.929688 L 36.699219 182.082031 L 181.191406 254.402344 C 182.144531 254.878906 183.136719 255.238281 184.167969 255.480469 C 185.203125 255.726562 186.25 255.847656 187.3125 255.847656 C 188.375 255.847656 189.421875 255.726562 190.457031 255.480469 C 191.492188 255.238281 192.484375 254.878906 193.433594 254.402344 L 337.925781 182.082031 L 337.925781 297.929688 C 337.921875 299.238281 337.855469 300.546875 337.726562 301.847656 C 337.597656 303.152344 337.402344 304.445312 337.148438 305.730469 C 336.890625 307.011719 336.570312 308.28125 336.191406 309.535156 C 335.808594 310.785156 335.367188 312.019531 334.867188 313.226562 C 334.363281 314.4375 333.804688 315.617188 333.1875 316.773438 C 332.570312 317.925781 331.894531 319.046875 331.167969 320.136719 C 330.441406 321.226562 329.660156 322.277344 328.828125 323.289062 C 328 324.300781 327.121094 325.269531 326.195312 326.195312 C 325.269531 327.121094 324.300781 328 323.289062 328.828125 C 322.277344 329.660156 321.226562 330.441406 320.136719 331.167969 C 319.046875 331.894531 317.925781 332.570312 316.773438 333.1875 C 315.617188 333.804688 314.4375 334.363281 313.226562 334.867188 C 312.019531 335.367188 310.785156 335.808594 309.535156 336.191406 C 308.28125 336.570312 307.011719 336.890625 305.730469 337.148438 C 304.445312 337.402344 303.152344 337.597656 301.847656 337.726562 C 300.546875 337.855469 299.238281 337.921875 297.929688 337.925781 Z M 297.929688 337.925781 " clip-rule="nonzero"/></clipPath><linearGradient x1="3.487699" gradientTransform="matrix(13.692005, 0, 0, 13.692005, -4.37523, -4.37524)" y1="28.990173" x2="26.317076" gradientUnits="userSpaceOnUse" y2="0.453658" id="ef80bf3b22"><stop stop-opacity="1" stop-color="rgb(99.238586%, 79.618835%, 6.719971%)" offset="0"/><stop stop-opacity="1" stop-color="rgb(99.221802%, 79.443359%, 6.542969%)" offset="0.0078125"/><stop stop-opacity="1" stop-color="rgb(99.201965%, 79.196167%, 6.283569%)" offset="0.015625"/><stop stop-opacity="1" stop-color="rgb(99.198914%, 79.034424%, 6.079102%)" offset="0.03125"/><stop stop-opacity="1" stop-color="rgb(99.198914%, 78.851318%, 5.836487%)" offset="0.046875"/><stop stop-opacity="1" stop-color="rgb(99.198914%, 78.669739%, 5.592346%)" offset="0.0625"/><stop stop-opacity="1" stop-color="rgb(99.198914%, 78.486633%, 5.349731%)" offset="0.078125"/><stop stop-opacity="1" stop-color="rgb(99.198914%, 78.305054%, 5.105591%)" offset="0.09375"/><stop stop-opacity="1" stop-color="rgb(99.198914%, 78.121948%, 4.862976%)" offset="0.109375"/><stop stop-opacity="1" stop-color="rgb(99.177551%, 77.897644%, 4.829407%)" offset="0.117187"/><stop stop-opacity="1" stop-color="rgb(99.124146%, 77.586365%, 5.082703%)" offset="0.125"/><stop stop-opacity="1" stop-color="rgb(99.058533%, 77.227783%, 5.415344%)" offset="0.132812"/><stop stop-opacity="1" stop-color="rgb(98.994446%, 76.870728%, 5.747986%)" offset="0.140625"/><stop stop-opacity="1" stop-color="rgb(98.928833%, 76.512146%, 6.082153%)" offset="0.148437"/><stop stop-opacity="1" stop-color="rgb(98.864746%, 76.153564%, 6.414795%)" offset="0.15625"/><stop stop-opacity="1" stop-color="rgb(98.799133%, 75.796509%, 6.747437%)" offset="0.164062"/><stop stop-opacity="1" stop-color="rgb(98.735046%, 75.437927%, 7.081604%)" offset="0.171875"/><stop stop-opacity="1" stop-color="rgb(98.669434%, 75.079346%, 7.414246%)" offset="0.179688"/><stop stop-opacity="1" stop-color="rgb(98.603821%, 74.72229%, 7.746887%)" offset="0.1875"/><stop stop-opacity="1" stop-color="rgb(98.539734%, 74.363708%, 8.079529%)" offset="0.195312"/><stop stop-opacity="1" stop-color="rgb(98.474121%, 74.005127%, 8.413696%)" offset="0.203125"/><stop stop-opacity="1" stop-color="rgb(98.410034%, 73.648071%, 8.746338%)" offset="0.210937"/><stop stop-opacity="1" stop-color="rgb(98.344421%, 73.28949%, 9.078979%)" offset="0.21875"/><stop stop-opacity="1" stop-color="rgb(98.280334%, 72.930908%, 9.413147%)" offset="0.226563"/><stop stop-opacity="1" stop-color="rgb(98.214722%, 72.573853%, 9.745789%)" offset="0.234375"/><stop stop-opacity="1" stop-color="rgb(98.149109%, 72.215271%, 10.07843%)" offset="0.242188"/><stop stop-opacity="1" stop-color="rgb(98.085022%, 71.856689%, 10.412598%)" offset="0.25"/><stop stop-opacity="1" stop-color="rgb(98.019409%, 71.499634%, 10.745239%)" offset="0.257812"/><stop stop-opacity="1" stop-color="rgb(97.955322%, 71.141052%, 11.077881%)" offset="0.265625"/><stop stop-opacity="1" stop-color="rgb(97.889709%, 70.783997%, 11.410522%)" offset="0.273437"/><stop stop-opacity="1" stop-color="rgb(97.825623%, 70.425415%, 11.74469%)" offset="0.28125"/><stop stop-opacity="1" stop-color="rgb(97.76001%, 70.066833%, 12.077332%)" offset="0.289062"/><stop stop-opacity="1" stop-color="rgb(97.694397%, 69.709778%, 12.409973%)" offset="0.296875"/><stop stop-opacity="1" stop-color="rgb(97.63031%, 69.351196%, 12.744141%)" offset="0.304688"/><stop stop-opacity="1" stop-color="rgb(97.564697%, 68.992615%, 13.076782%)" offset="0.3125"/><stop stop-opacity="1" stop-color="rgb(97.50061%, 68.635559%, 13.409424%)" offset="0.320312"/><stop stop-opacity="1" stop-color="rgb(97.434998%, 68.276978%, 13.742065%)" offset="0.328125"/><stop stop-opacity="1" stop-color="rgb(97.370911%, 67.918396%, 14.076233%)" offset="0.335938"/><stop stop-opacity="1" stop-color="rgb(97.305298%, 67.56134%, 14.408875%)" offset="0.34375"/><stop stop-opacity="1" stop-color="rgb(97.239685%, 67.202759%, 14.741516%)" offset="0.351562"/><stop stop-opacity="1" stop-color="rgb(97.175598%, 66.844177%, 15.075684%)" offset="0.359375"/><stop stop-opacity="1" stop-color="rgb(97.109985%, 66.487122%, 15.408325%)" offset="0.367187"/><stop stop-opacity="1" stop-color="rgb(97.045898%, 66.12854%, 15.740967%)" offset="0.375"/><stop stop-opacity="1" stop-color="rgb(96.980286%, 65.769958%, 16.073608%)" offset="0.382813"/><stop stop-opacity="1" stop-color="rgb(96.916199%, 65.412903%, 16.407776%)" offset="0.390625"/><stop stop-opacity="1" stop-color="rgb(96.850586%, 65.054321%, 16.740417%)" offset="0.398438"/><stop stop-opacity="1" stop-color="rgb(96.786499%, 64.69574%, 17.073059%)" offset="0.40625"/><stop stop-opacity="1" stop-color="rgb(96.720886%, 64.338684%, 17.407227%)" offset="0.414062"/><stop stop-opacity="1" stop-color="rgb(96.655273%, 63.980103%, 17.739868%)" offset="0.421875"/><stop stop-opacity="1" stop-color="rgb(96.591187%, 63.621521%, 18.07251%)" offset="0.429688"/><stop stop-opacity="1" stop-color="rgb(96.525574%, 63.264465%, 18.406677%)" offset="0.4375"/><stop stop-opacity="1" stop-color="rgb(96.461487%, 62.905884%, 18.739319%)" offset="0.444446"/><stop stop-opacity="1" stop-color="rgb(96.429443%, 62.727356%, 18.90564%)" offset="0.445312"/><stop stop-opacity="1" stop-color="rgb(96.395874%, 62.547302%, 19.07196%)" offset="0.453125"/><stop stop-opacity="1" stop-color="rgb(96.331787%, 62.190247%, 19.404602%)" offset="0.460938"/><stop stop-opacity="1" stop-color="rgb(96.266174%, 61.831665%, 19.73877%)" offset="0.46875"/><stop stop-opacity="1" stop-color="rgb(96.200562%, 61.473083%, 20.071411%)" offset="0.476563"/><stop stop-opacity="1" stop-color="rgb(96.136475%, 61.116028%, 20.404053%)" offset="0.484375"/><stop stop-opacity="1" stop-color="rgb(96.070862%, 60.757446%, 20.73822%)" offset="0.492188"/><stop stop-opacity="1" stop-color="rgb(96.006775%, 60.398865%, 21.070862%)" offset="0.5"/><stop stop-opacity="1" stop-color="rgb(95.941162%, 60.041809%, 21.403503%)" offset="0.507812"/><stop stop-opacity="1" stop-color="rgb(95.877075%, 59.683228%, 21.736145%)" offset="0.515625"/><stop stop-opacity="1" stop-color="rgb(95.811462%, 59.324646%, 22.070312%)" offset="0.523437"/><stop stop-opacity="1" stop-color="rgb(95.74585%, 58.96759%, 22.402954%)" offset="0.53125"/><stop stop-opacity="1" stop-color="rgb(95.681763%, 58.609009%, 22.735596%)" offset="0.539062"/><stop stop-opacity="1" stop-color="rgb(95.61615%, 58.250427%, 23.069763%)" offset="0.546875"/><stop stop-opacity="1" stop-color="rgb(95.552063%, 57.893372%, 23.402405%)" offset="0.554688"/><stop stop-opacity="1" stop-color="rgb(95.48645%, 57.53479%, 23.735046%)" offset="0.555554"/><stop stop-opacity="1" stop-color="rgb(95.454407%, 57.356262%, 23.901367%)" offset="0.5625"/><stop stop-opacity="1" stop-color="rgb(95.422363%, 57.176208%, 24.067688%)" offset="0.570312"/><stop stop-opacity="1" stop-color="rgb(95.35675%, 56.819153%, 24.401855%)" offset="0.578125"/><stop stop-opacity="1" stop-color="rgb(95.289612%, 56.428528%, 24.623108%)" offset="0.582031"/><stop stop-opacity="1" stop-color="rgb(95.256042%, 56.217957%, 24.67804%)" offset="0.585938"/><stop stop-opacity="1" stop-color="rgb(95.220947%, 55.986023%, 24.659729%)" offset="0.589844"/><stop stop-opacity="1" stop-color="rgb(95.185852%, 55.755615%, 24.642944%)" offset="0.59375"/><stop stop-opacity="1" stop-color="rgb(95.149231%, 55.523682%, 24.624634%)" offset="0.597656"/><stop stop-opacity="1" stop-color="rgb(95.114136%, 55.291748%, 24.606323%)" offset="0.601562"/><stop stop-opacity="1" stop-color="rgb(95.079041%, 55.059814%, 24.588013%)" offset="0.605469"/><stop stop-opacity="1" stop-color="rgb(95.043945%, 54.827881%, 24.571228%)" offset="0.609375"/><stop stop-opacity="1" stop-color="rgb(95.00885%, 54.595947%, 24.552917%)" offset="0.613281"/><stop stop-opacity="1" stop-color="rgb(94.973755%, 54.36554%, 24.536133%)" offset="0.617188"/><stop stop-opacity="1" stop-color="rgb(94.937134%, 54.133606%, 24.517822%)" offset="0.621094"/><stop stop-opacity="1" stop-color="rgb(94.902039%, 53.901672%, 24.501038%)" offset="0.625"/><stop stop-opacity="1" stop-color="rgb(94.866943%, 53.669739%, 24.482727%)" offset="0.628906"/><stop stop-opacity="1" stop-color="rgb(94.831848%, 53.439331%, 24.465942%)" offset="0.632812"/><stop stop-opacity="1" stop-color="rgb(94.795227%, 53.207397%, 24.447632%)" offset="0.636719"/><stop stop-opacity="1" stop-color="rgb(94.760132%, 52.975464%, 24.429321%)" offset="0.640625"/><stop stop-opacity="1" stop-color="rgb(94.725037%, 52.74353%, 24.411011%)" offset="0.644531"/><stop stop-opacity="1" stop-color="rgb(94.689941%, 52.511597%, 24.394226%)" offset="0.648438"/><stop stop-opacity="1" stop-color="rgb(94.65332%, 52.279663%, 24.375916%)" offset="0.652344"/><stop stop-opacity="1" stop-color="rgb(94.618225%, 52.049255%, 24.359131%)" offset="0.65625"/><stop stop-opacity="1" stop-color="rgb(94.58313%, 51.817322%, 24.34082%)" offset="0.660156"/><stop stop-opacity="1" stop-color="rgb(94.548035%, 51.585388%, 24.324036%)" offset="0.664062"/><stop stop-opacity="1" stop-color="rgb(94.512939%, 51.353455%, 24.305725%)" offset="0.667969"/><stop stop-opacity="1" stop-color="rgb(94.477844%, 51.123047%, 24.28894%)" offset="0.671875"/><stop stop-opacity="1" stop-color="rgb(94.441223%, 50.891113%, 24.27063%)" offset="0.675781"/><stop stop-opacity="1" stop-color="rgb(94.406128%, 50.65918%, 24.252319%)" offset="0.679688"/><stop stop-opacity="1" stop-color="rgb(94.371033%, 50.427246%, 24.234009%)" offset="0.683594"/><stop stop-opacity="1" stop-color="rgb(94.335938%, 50.195312%, 24.217224%)" offset="0.6875"/><stop stop-opacity="1" stop-color="rgb(94.299316%, 49.963379%, 24.198914%)" offset="0.691406"/><stop stop-opacity="1" stop-color="rgb(94.264221%, 49.732971%, 24.182129%)" offset="0.695312"/><stop stop-opacity="1" stop-color="rgb(94.229126%, 49.501038%, 24.163818%)" offset="0.699219"/><stop stop-opacity="1" stop-color="rgb(94.194031%, 49.269104%, 24.147034%)" offset="0.703125"/><stop stop-opacity="1" stop-color="rgb(94.158936%, 49.03717%, 24.128723%)" offset="0.707031"/><stop stop-opacity="1" stop-color="rgb(94.12384%, 48.806763%, 24.111938%)" offset="0.710938"/><stop stop-opacity="1" stop-color="rgb(94.087219%, 48.574829%, 24.093628%)" offset="0.714844"/><stop stop-opacity="1" stop-color="rgb(94.052124%, 48.342896%, 24.075317%)" offset="0.71875"/><stop stop-opacity="1" stop-color="rgb(94.017029%, 48.110962%, 24.057007%)" offset="0.722656"/><stop stop-opacity="1" stop-color="rgb(93.981934%, 47.879028%, 24.040222%)" offset="0.726562"/><stop stop-opacity="1" stop-color="rgb(93.945312%, 47.647095%, 24.021912%)" offset="0.730469"/><stop stop-opacity="1" stop-color="rgb(93.910217%, 47.416687%, 24.005127%)" offset="0.734375"/><stop stop-opacity="1" stop-color="rgb(93.875122%, 47.184753%, 23.986816%)" offset="0.738281"/><stop stop-opacity="1" stop-color="rgb(93.840027%, 46.95282%, 23.970032%)" offset="0.742188"/><stop stop-opacity="1" stop-color="rgb(93.804932%, 46.720886%, 23.951721%)" offset="0.746094"/><stop stop-opacity="1" stop-color="rgb(93.769836%, 46.490479%, 23.934937%)" offset="0.75"/><stop stop-opacity="1" stop-color="rgb(93.733215%, 46.258545%, 23.916626%)" offset="0.753906"/><stop stop-opacity="1" stop-color="rgb(93.69812%, 46.026611%, 23.898315%)" offset="0.757812"/><stop stop-opacity="1" stop-color="rgb(93.663025%, 45.794678%, 23.880005%)" offset="0.761719"/><stop stop-opacity="1" stop-color="rgb(93.62793%, 45.562744%, 23.86322%)" offset="0.765625"/><stop stop-opacity="1" stop-color="rgb(93.591309%, 45.330811%, 23.84491%)" offset="0.769531"/><stop stop-opacity="1" stop-color="rgb(93.556213%, 45.100403%, 23.828125%)" offset="0.773438"/><stop stop-opacity="1" stop-color="rgb(93.521118%, 44.868469%, 23.809814%)" offset="0.777344"/><stop stop-opacity="1" stop-color="rgb(93.486023%, 44.636536%, 23.79303%)" offset="0.78125"/><stop stop-opacity="1" stop-color="rgb(93.450928%, 44.404602%, 23.774719%)" offset="0.785156"/><stop stop-opacity="1" stop-color="rgb(93.415833%, 44.174194%, 23.756409%)" offset="0.789062"/><stop stop-opacity="1" stop-color="rgb(93.379211%, 43.942261%, 23.738098%)" offset="0.792969"/><stop stop-opacity="1" stop-color="rgb(93.344116%, 43.710327%, 23.721313%)" offset="0.796875"/><stop stop-opacity="1" stop-color="rgb(93.309021%, 43.478394%, 23.703003%)" offset="0.800781"/><stop stop-opacity="1" stop-color="rgb(93.273926%, 43.24646%, 23.686218%)" offset="0.804688"/><stop stop-opacity="1" stop-color="rgb(93.237305%, 43.014526%, 23.667908%)" offset="0.808594"/><stop stop-opacity="1" stop-color="rgb(93.202209%, 42.784119%, 23.651123%)" offset="0.8125"/><stop stop-opacity="1" stop-color="rgb(93.167114%, 42.552185%, 23.632812%)" offset="0.816406"/><stop stop-opacity="1" stop-color="rgb(93.132019%, 42.320251%, 23.616028%)" offset="0.820312"/><stop stop-opacity="1" stop-color="rgb(93.095398%, 42.088318%, 23.597717%)" offset="0.824219"/><stop stop-opacity="1" stop-color="rgb(93.060303%, 41.85791%, 23.579407%)" offset="0.828125"/><stop stop-opacity="1" stop-color="rgb(93.025208%, 41.625977%, 23.561096%)" offset="0.832031"/><stop stop-opacity="1" stop-color="rgb(92.990112%, 41.394043%, 23.544312%)" offset="0.835938"/><stop stop-opacity="1" stop-color="rgb(92.955017%, 41.162109%, 23.526001%)" offset="0.839844"/><stop stop-opacity="1" stop-color="rgb(92.919922%, 40.930176%, 23.509216%)" offset="0.84375"/><stop stop-opacity="1" stop-color="rgb(92.878723%, 40.524292%, 23.487854%)" offset="0.847656"/><stop stop-opacity="1" stop-color="rgb(92.837524%, 40.118408%, 23.466492%)" offset="0.851562"/><stop stop-opacity="1" stop-color="rgb(92.793274%, 39.642334%, 23.443604%)" offset="0.855469"/><stop stop-opacity="1" stop-color="rgb(92.750549%, 39.16626%, 23.420715%)" offset="0.859375"/><stop stop-opacity="1" stop-color="rgb(92.706299%, 38.690186%, 23.396301%)" offset="0.863281"/><stop stop-opacity="1" stop-color="rgb(92.663574%, 38.214111%, 23.373413%)" offset="0.867188"/><stop stop-opacity="1" stop-color="rgb(92.62085%, 37.738037%, 23.350525%)" offset="0.871094"/><stop stop-opacity="1" stop-color="rgb(92.578125%, 37.261963%, 23.327637%)" offset="0.875"/><stop stop-opacity="1" stop-color="rgb(92.533875%, 36.785889%, 23.304749%)" offset="0.878906"/><stop stop-opacity="1" stop-color="rgb(92.49115%, 36.309814%, 23.28186%)" offset="0.882812"/><stop stop-opacity="1" stop-color="rgb(92.446899%, 35.83374%, 23.258972%)" offset="0.886719"/><stop stop-opacity="1" stop-color="rgb(92.404175%, 35.357666%, 23.236084%)" offset="0.890625"/><stop stop-opacity="1" stop-color="rgb(92.36145%, 34.881592%, 23.21167%)" offset="0.894531"/><stop stop-opacity="1" stop-color="rgb(92.318726%, 34.405518%, 23.188782%)" offset="0.898438"/><stop stop-opacity="1" stop-color="rgb(92.274475%, 33.929443%, 23.165894%)" offset="0.902344"/><stop stop-opacity="1" stop-color="rgb(92.23175%, 33.453369%, 23.143005%)" offset="0.90625"/><stop stop-opacity="1" stop-color="rgb(92.1875%, 32.977295%, 23.120117%)" offset="0.910156"/><stop stop-opacity="1" stop-color="rgb(92.144775%, 32.502747%, 23.097229%)" offset="0.914062"/><stop stop-opacity="1" stop-color="rgb(92.100525%, 32.026672%, 23.074341%)" offset="0.917969"/><stop stop-opacity="1" stop-color="rgb(92.0578%, 31.550598%, 23.051453%)" offset="0.921875"/><stop stop-opacity="1" stop-color="rgb(92.015076%, 31.074524%, 23.027039%)" offset="0.925781"/><stop stop-opacity="1" stop-color="rgb(91.972351%, 30.59845%, 23.00415%)" offset="0.929688"/><stop stop-opacity="1" stop-color="rgb(91.928101%, 30.122375%, 22.981262%)" offset="0.933594"/><stop stop-opacity="1" stop-color="rgb(91.885376%, 29.646301%, 22.958374%)" offset="0.9375"/><stop stop-opacity="1" stop-color="rgb(91.841125%, 29.170227%, 22.935486%)" offset="0.941406"/><stop stop-opacity="1" stop-color="rgb(91.798401%, 28.694153%, 22.912598%)" offset="0.945312"/><stop stop-opacity="1" stop-color="rgb(91.755676%, 28.218079%, 22.889709%)" offset="0.949219"/><stop stop-opacity="1" stop-color="rgb(91.712952%, 27.742004%, 22.866821%)" offset="0.953125"/><stop stop-opacity="1" stop-color="rgb(91.668701%, 27.26593%, 22.842407%)" offset="0.957031"/><stop stop-opacity="1" stop-color="rgb(91.625977%, 26.789856%, 22.819519%)" offset="0.960938"/><stop stop-opacity="1" stop-color="rgb(91.581726%, 26.313782%, 22.796631%)" offset="0.964844"/><stop stop-opacity="1" stop-color="rgb(91.539001%, 25.837708%, 22.773743%)" offset="0.96875"/><stop stop-opacity="1" stop-color="rgb(91.494751%, 25.361633%, 22.750854%)" offset="0.972656"/><stop stop-opacity="1" stop-color="rgb(91.452026%, 24.885559%, 22.727966%)" offset="0.976563"/><stop stop-opacity="1" stop-color="rgb(91.424561%, 24.59259%, 22.712708%)" offset="0.980469"/><stop stop-opacity="1" stop-color="rgb(91.398621%, 24.299622%, 22.698975%)" offset="0.984375"/><stop stop-opacity="1" stop-color="rgb(91.398621%, 24.299622%, 22.698975%)" offset="1"/></linearGradient><clipPath id="a4629378dd"><path d="M 132.542969 64.085938 L 242.082031 64.085938 L 242.082031 91.46875 L 132.542969 91.46875 Z M 132.542969 64.085938 " clip-rule="nonzero"/></clipPath><linearGradient x1="11.951051" gradientTransform="matrix(13.692005, 0, 0, 13.692005, -4.37523, -4.37524)" y1="8.560853" x2="16.048641" gradientUnits="userSpaceOnUse" y2="3.438903" id="cd4210d4b7"><stop stop-opacity="1" stop-color="rgb(95.298767%, 56.498718%, 24.699402%)" offset="0"/><stop stop-opacity="1" stop-color="rgb(95.272827%, 56.332397%, 24.685669%)" offset="0.03125"/><stop stop-opacity="1" stop-color="rgb(95.222473%, 55.999756%, 24.661255%)" offset="0.0625"/><stop stop-opacity="1" stop-color="rgb(95.172119%, 55.667114%, 24.635315%)" offset="0.09375"/><stop stop-opacity="1" stop-color="rgb(95.120239%, 55.334473%, 24.609375%)" offset="0.125"/><stop stop-opacity="1" stop-color="rgb(95.069885%, 55.003357%, 24.584961%)" offset="0.15625"/><stop stop-opacity="1" stop-color="rgb(95.019531%, 54.670715%, 24.559021%)" offset="0.1875"/><stop stop-opacity="1" stop-color="rgb(94.967651%, 54.338074%, 24.533081%)" offset="0.21875"/><stop stop-opacity="1" stop-color="rgb(94.917297%, 54.005432%, 24.508667%)" offset="0.238094"/><stop stop-opacity="1" stop-color="rgb(94.892883%, 53.839111%, 24.49646%)" offset="0.25"/><stop stop-opacity="1" stop-color="rgb(94.866943%, 53.672791%, 24.482727%)" offset="0.28125"/><stop stop-opacity="1" stop-color="rgb(94.815063%, 53.340149%, 24.456787%)" offset="0.3125"/><stop stop-opacity="1" stop-color="rgb(94.764709%, 53.007507%, 24.432373%)" offset="0.34375"/><stop stop-opacity="1" stop-color="rgb(94.714355%, 52.674866%, 24.406433%)" offset="0.375"/><stop stop-opacity="1" stop-color="rgb(94.662476%, 52.342224%, 24.380493%)" offset="0.40625"/><stop stop-opacity="1" stop-color="rgb(94.612122%, 52.009583%, 24.356079%)" offset="0.4375"/><stop stop-opacity="1" stop-color="rgb(94.561768%, 51.676941%, 24.330139%)" offset="0.46875"/><stop stop-opacity="1" stop-color="rgb(94.511414%, 51.344299%, 24.304199%)" offset="0.5"/><stop stop-opacity="1" stop-color="rgb(94.459534%, 51.011658%, 24.279785%)" offset="0.53125"/><stop stop-opacity="1" stop-color="rgb(94.40918%, 50.679016%, 24.253845%)" offset="0.5625"/><stop stop-opacity="1" stop-color="rgb(94.358826%, 50.346375%, 24.227905%)" offset="0.59375"/><stop stop-opacity="1" stop-color="rgb(94.306946%, 50.013733%, 24.203491%)" offset="0.625"/><stop stop-opacity="1" stop-color="rgb(94.256592%, 49.681091%, 24.177551%)" offset="0.65625"/><stop stop-opacity="1" stop-color="rgb(94.206238%, 49.34845%, 24.151611%)" offset="0.6875"/><stop stop-opacity="1" stop-color="rgb(94.154358%, 49.015808%, 24.127197%)" offset="0.71875"/><stop stop-opacity="1" stop-color="rgb(94.104004%, 48.683167%, 24.101257%)" offset="0.75"/><stop stop-opacity="1" stop-color="rgb(94.05365%, 48.350525%, 24.075317%)" offset="0.761906"/><stop stop-opacity="1" stop-color="rgb(94.02771%, 48.184204%, 24.06311%)" offset="0.78125"/><stop stop-opacity="1" stop-color="rgb(94.00177%, 48.017883%, 24.050903%)" offset="0.8125"/><stop stop-opacity="1" stop-color="rgb(93.951416%, 47.685242%, 24.024963%)" offset="0.84375"/><stop stop-opacity="1" stop-color="rgb(93.901062%, 47.3526%, 23.999023%)" offset="0.875"/><stop stop-opacity="1" stop-color="rgb(93.849182%, 47.019958%, 23.974609%)" offset="0.90625"/><stop stop-opacity="1" stop-color="rgb(93.798828%, 46.687317%, 23.948669%)" offset="0.9375"/><stop stop-opacity="1" stop-color="rgb(93.748474%, 46.354675%, 23.922729%)" offset="0.96875"/><stop stop-opacity="1" stop-color="rgb(93.696594%, 46.022034%, 23.898315%)" offset="1"/></linearGradient><clipPath id="ff3877ea47"><path d="M 132.542969 118.851562 L 187.3125 118.851562 L 187.3125 146.238281 L 132.542969 146.238281 Z M 132.542969 118.851562 " clip-rule="nonzero"/></clipPath><linearGradient x1="10.732022" gradientTransform="matrix(13.692005, 0, 0, 13.692005, -4.37523, -4.37524)" y1="11.585622" x2="13.268623" gradientUnits="userSpaceOnUse" y2="8.414894" id="d49988def6"><stop stop-opacity="1" stop-color="rgb(96.009827%, 60.415649%, 21.055603%)" offset="0"/><stop stop-opacity="1" stop-color="rgb(95.980835%, 60.256958%, 21.203613%)" offset="0.0625"/><stop stop-opacity="1" stop-color="rgb(95.922852%, 59.938049%, 21.499634%)" offset="0.125"/><stop stop-opacity="1" stop-color="rgb(95.864868%, 59.620667%, 21.795654%)" offset="0.1875"/><stop stop-opacity="1" stop-color="rgb(95.806885%, 59.301758%, 22.091675%)" offset="0.25"/><stop stop-opacity="1" stop-color="rgb(95.750427%, 58.982849%, 22.387695%)" offset="0.3125"/><stop stop-opacity="1" stop-color="rgb(95.692444%, 58.665466%, 22.683716%)" offset="0.375"/><stop stop-opacity="1" stop-color="rgb(95.63446%, 58.346558%, 22.979736%)" offset="0.384614"/><stop stop-opacity="1" stop-color="rgb(95.605469%, 58.187866%, 23.127747%)" offset="0.4375"/><stop stop-opacity="1" stop-color="rgb(95.576477%, 58.029175%, 23.275757%)" offset="0.5"/><stop stop-opacity="1" stop-color="rgb(95.518494%, 57.710266%, 23.571777%)" offset="0.5625"/><stop stop-opacity="1" stop-color="rgb(95.46051%, 57.391357%, 23.867798%)" offset="0.615386"/><stop stop-opacity="1" stop-color="rgb(95.433044%, 57.232666%, 24.015808%)" offset="0.625"/><stop stop-opacity="1" stop-color="rgb(95.404053%, 57.073975%, 24.163818%)" offset="0.6875"/><stop stop-opacity="1" stop-color="rgb(95.346069%, 56.755066%, 24.459839%)" offset="0.75"/><stop stop-opacity="1" stop-color="rgb(95.28656%, 56.404114%, 24.642944%)" offset="0.8125"/><stop stop-opacity="1" stop-color="rgb(95.239258%, 56.109619%, 24.668884%)" offset="0.84375"/><stop stop-opacity="1" stop-color="rgb(95.207214%, 55.903625%, 24.653625%)" offset="0.875"/><stop stop-opacity="1" stop-color="rgb(95.176697%, 55.697632%, 24.638367%)" offset="0.90625"/><stop stop-opacity="1" stop-color="rgb(95.144653%, 55.491638%, 24.621582%)" offset="0.9375"/><stop stop-opacity="1" stop-color="rgb(95.114136%, 55.28717%, 24.606323%)" offset="0.96875"/><stop stop-opacity="1" stop-color="rgb(95.082092%, 55.081177%, 24.591064%)" offset="1"/></linearGradient><clipPath id="34f56a2011"><path d="M 241.523438 43.601562 L 264.742188 43.601562 L 264.742188 66.816406 L 241.523438 66.816406 Z M 241.523438 43.601562 " clip-rule="nonzero"/></clipPath><clipPath id="e9746756a5"><path d="M 149.484375 269.050781 L 226 269.050781 L 226 326 L 149.484375 326 Z M 149.484375 269.050781 " clip-rule="nonzero"/></clipPath></defs><g clip-path="url(#82e07e5130)"><g clip-path="url(#90af23cbca)"><path fill="url(#ef80bf3b22)" d="M 9.316406 9.316406 L 9.316406 365.308594 L 365.308594 365.308594 L 365.308594 9.316406 Z M 9.316406 9.316406 " fill-rule="nonzero"/></g></g><g clip-path="url(#a4629378dd)"><path fill="url(#cd4210d4b7)" d="M 132.542969 64.085938 L 132.542969 91.46875 L 242.082031 91.46875 L 242.082031 64.085938 Z M 132.542969 64.085938 " fill-rule="nonzero"/></g><g clip-path="url(#ff3877ea47)"><path fill="url(#d49988def6)" d="M 132.542969 118.851562 L 132.542969 146.238281 L 187.3125 146.238281 L 187.3125 118.851562 Z M 132.542969 118.851562 " fill-rule="nonzero"/></g><g clip-path="url(#34f56a2011)"><path fill="#ed653c" d="M 244.828125 66.582031 L 247.925781 65.671875 C 248.4375 65.519531 248.878906 65.253906 249.253906 64.878906 L 263.546875 50.585938 C 264.652344 49.480469 264.761719 47.789062 263.789062 46.8125 L 261.597656 44.625 C 260.625 43.648438 258.933594 43.757812 257.828125 44.867188 L 243.535156 59.15625 C 243.15625 59.53125 242.890625 59.976562 242.738281 60.484375 L 241.828125 63.585938 C 241.6875 64.011719 241.667969 64.445312 241.765625 64.882812 C 241.867188 65.320312 242.070312 65.703125 242.382812 66.027344 C 242.84375 66.484375 243.398438 66.707031 244.046875 66.699219 C 244.3125 66.699219 244.570312 66.660156 244.828125 66.582031 Z M 259.167969 46.207031 C 259.375 45.984375 259.628906 45.867188 259.933594 45.851562 C 260.054688 45.84375 260.164062 45.882812 260.257812 45.964844 L 262.449219 48.152344 C 262.648438 48.355469 262.585938 48.863281 262.207031 49.246094 L 260.011719 51.4375 L 256.972656 48.398438 Z M 243.648438 64.117188 L 244.554688 61.019531 C 244.617188 60.820312 244.726562 60.644531 244.875 60.496094 L 255.632812 49.738281 L 258.671875 52.777344 L 247.914062 63.539062 C 247.765625 63.6875 247.59375 63.792969 247.390625 63.855469 L 244.292969 64.765625 C 244.089844 64.851562 243.898438 64.824219 243.722656 64.6875 C 243.585938 64.511719 243.5625 64.324219 243.648438 64.117188 Z M 243.648438 64.117188 " fill-opacity="1" fill-rule="nonzero"/></g><g clip-path="url(#e9746756a5)"><path fill="#f8ac23" d="M 225.003906 294.789062 C 224.777344 294.378906 224.480469 294.023438 224.121094 293.722656 C 223.757812 293.421875 223.355469 293.199219 222.90625 293.050781 C 222.460938 292.902344 222.003906 292.84375 221.535156 292.871094 C 221.066406 292.894531 220.617188 293.003906 220.191406 293.199219 C 216.757812 294.75 213.207031 295.9375 209.53125 296.765625 L 202.527344 273.832031 C 202.332031 273.1875 202.035156 272.585938 201.648438 272.035156 C 201.257812 271.484375 200.789062 271.011719 200.246094 270.609375 C 199.703125 270.210938 199.109375 269.902344 198.46875 269.695312 C 197.828125 269.484375 197.167969 269.382812 196.496094 269.386719 C 195.625 269.382812 194.792969 269.554688 193.996094 269.902344 C 193.199219 270.25 192.507812 270.746094 191.917969 271.386719 C 191.636719 271.683594 191.332031 271.949219 190.996094 272.183594 C 190.660156 272.421875 190.304688 272.617188 189.925781 272.78125 C 189.550781 272.945312 189.164062 273.066406 188.761719 273.148438 C 188.359375 273.230469 187.953125 273.273438 187.546875 273.273438 C 187.136719 273.273438 186.730469 273.230469 186.328125 273.148438 C 185.925781 273.066406 185.539062 272.945312 185.164062 272.78125 C 184.785156 272.617188 184.429688 272.421875 184.09375 272.183594 C 183.761719 271.949219 183.453125 271.683594 183.171875 271.386719 C 182.792969 270.980469 182.371094 270.632812 181.90625 270.339844 C 181.4375 270.046875 180.9375 269.820312 180.410156 269.660156 C 179.882812 269.496094 179.34375 269.40625 178.792969 269.386719 C 178.242188 269.367188 177.695312 269.421875 177.160156 269.546875 C 176.621094 269.667969 176.109375 269.859375 175.621094 270.121094 C 175.136719 270.378906 174.6875 270.695312 174.285156 271.074219 C 173.882812 271.449219 173.535156 271.871094 173.242188 272.339844 C 172.949219 272.808594 172.722656 273.304688 172.5625 273.832031 L 165.558594 296.765625 C 161.878906 295.933594 158.320312 294.742188 154.878906 293.191406 C 154.390625 292.972656 153.878906 292.863281 153.339844 292.863281 C 152.660156 292.863281 152.027344 293.039062 151.445312 293.386719 C 150.859375 293.734375 150.40625 294.207031 150.078125 294.804688 C 149.578125 295.753906 149.496094 296.738281 149.839844 297.757812 C 150.171875 298.761719 150.816406 299.480469 151.773438 299.917969 C 161.082031 304.246094 173.785156 306.625 187.546875 306.625 C 201.304688 306.625 214.007812 304.246094 223.320312 299.917969 C 223.96875 299.613281 224.488281 299.15625 224.871094 298.550781 C 225.257812 297.945312 225.453125 297.285156 225.453125 296.566406 C 225.449219 295.9375 225.300781 295.34375 225.003906 294.789062 Z M 222.28125 297.679688 C 213.417969 301.796875 200.757812 304.15625 187.546875 304.15625 C 174.332031 304.15625 161.671875 301.796875 152.808594 297.679688 C 152.496094 297.535156 152.285156 297.296875 152.175781 296.96875 C 152.058594 296.628906 152.082031 296.296875 152.25 295.976562 C 152.484375 295.542969 152.847656 295.328125 153.339844 295.332031 C 153.519531 295.332031 153.691406 295.367188 153.855469 295.4375 C 157.609375 297.132812 161.496094 298.421875 165.519531 299.300781 C 172.777344 300.863281 180.117188 301.644531 187.542969 301.644531 C 194.96875 301.644531 202.3125 300.863281 209.570312 299.300781 C 213.589844 298.421875 217.476562 297.136719 221.226562 295.441406 C 221.367188 295.375 221.515625 295.335938 221.667969 295.324219 C 221.824219 295.3125 221.976562 295.332031 222.125 295.378906 C 222.273438 295.425781 222.410156 295.5 222.53125 295.597656 C 222.652344 295.695312 222.75 295.8125 222.824219 295.949219 C 222.929688 296.140625 222.980469 296.347656 222.984375 296.566406 C 222.984375 296.804688 222.921875 297.023438 222.796875 297.226562 C 222.667969 297.429688 222.496094 297.578125 222.277344 297.679688 Z M 211.203125 313.386719 C 211.300781 315.039062 211.089844 316.652344 210.578125 318.226562 C 210.0625 319.800781 209.277344 321.226562 208.222656 322.503906 C 207.425781 323.417969 206.480469 324.136719 205.382812 324.65625 C 204.289062 325.175781 203.132812 325.457031 201.921875 325.496094 C 201.808594 325.5 201.695312 325.503906 201.582031 325.503906 C 199.808594 325.40625 198.101562 325.015625 196.457031 324.332031 C 194.816406 323.648438 193.335938 322.710938 192.015625 321.523438 C 191.375 320.988281 190.871094 320.347656 190.496094 319.601562 C 190.121094 318.855469 189.910156 318.070312 189.859375 317.238281 C 189.859375 317.011719 189.875 316.792969 189.890625 316.574219 L 185.199219 316.574219 C 185.214844 316.792969 185.230469 317.011719 185.230469 317.238281 C 185.179688 318.070312 184.96875 318.855469 184.59375 319.601562 C 184.21875 320.347656 183.714844 320.988281 183.074219 321.523438 C 181.753906 322.714844 180.273438 323.648438 178.632812 324.332031 C 176.988281 325.015625 175.28125 325.40625 173.507812 325.503906 C 173.390625 325.503906 173.28125 325.5 173.167969 325.496094 C 171.957031 325.457031 170.804688 325.175781 169.707031 324.65625 C 168.613281 324.136719 167.664062 323.417969 166.867188 322.503906 C 165.8125 321.226562 165.027344 319.800781 164.511719 318.226562 C 164 316.652344 163.789062 315.039062 163.890625 313.386719 C 164.234375 308.953125 167.800781 308.964844 173.707031 308.984375 C 174.328125 308.984375 174.980469 308.988281 175.660156 308.988281 L 175.703125 308.988281 C 177.042969 308.921875 178.339844 309.121094 179.597656 309.578125 C 180.855469 310.039062 181.976562 310.722656 182.960938 311.628906 C 183.460938 312.125 183.878906 312.683594 184.222656 313.296875 C 184.367188 313.550781 184.566406 313.746094 184.820312 313.890625 C 185.074219 314.035156 185.34375 314.109375 185.636719 314.105469 L 189.453125 314.105469 C 189.746094 314.109375 190.015625 314.035156 190.269531 313.890625 C 190.523438 313.746094 190.722656 313.550781 190.867188 313.296875 C 191.210938 312.683594 191.628906 312.125 192.128906 311.628906 C 193.113281 310.722656 194.234375 310.039062 195.492188 309.578125 C 196.75 309.121094 198.046875 308.921875 199.386719 308.988281 C 199.621094 308.992188 199.792969 308.988281 199.992188 308.988281 C 200.890625 308.988281 201.726562 308.980469 202.515625 308.980469 C 207.742188 308.980469 210.878906 309.242188 211.203125 313.386719 Z M 211.203125 313.386719 " fill-opacity="1" fill-rule="nonzero"/></g></svg>